<?xml version="1.0" standalone="no"?>
<!DOCTYPE svg PUBLIC "-//W3C//DTD SVG 20010904//EN"
 "http://www.w3.org/TR/2001/REC-SVG-20010904/DTD/svg10.dtd">
<svg version="1.0" xmlns="http://www.w3.org/2000/svg"
 width="512.000000pt" height="512.000000pt" viewBox="0 0 512.000000 512.000000"
 preserveAspectRatio="xMidYMid meet">

<g transform="translate(0.000000,512.000000) scale(0.100000,-0.100000)"
fill="#000000" stroke="none">
<path d="M1730 4841 c-169 -55 -295 -182 -344 -350 -13 -45 -16 -109 -16 -353
l0 -298 -455 0 c-293 0 -473 -4 -507 -11 -189 -39 -358 -208 -397 -397 -8 -37
-11 -451 -11 -1385 0 -1467 -3 -1397 62 -1521 62 -118 201 -226 328 -255 30
-7 740 -11 2170 -11 2317 0 2168 -3 2289 57 72 36 167 131 208 209 66 125 64
51 61 1551 l-3 1358 -22 60 c-65 170 -212 299 -381 334 -34 7 -217 11 -507 11
l-455 0 0 298 c0 320 -4 351 -56 454 -35 69 -134 170 -201 205 -123 65 -89 63
-937 62 -711 0 -775 -1 -826 -18z m1606 -347 c15 -11 37 -33 48 -48 20 -26 21
-43 24 -317 l3 -289 -851 0 -850 0 0 274 c0 285 3 311 43 355 48 52 28 51 819
48 727 -2 737 -2 764 -23z m-2316 -2444 l0 -1450 -277 0 c-269 0 -279 1 -317
23 -25 14 -48 39 -63 66 l-23 44 0 1309 c0 1155 2 1313 15 1345 21 50 42 72
90 94 36 17 69 19 308 19 l267 0 0 -1450z m2730 0 l0 -1450 -1190 0 -1190 0 0
1450 0 1450 1190 0 1190 0 0 -1450z m942 1428 c15 -10 39 -34 55 -55 l28 -36
3 -1325 2 -1325 -21 -44 c-14 -29 -35 -52 -63 -68 -43 -25 -43 -25 -319 -25
l-277 0 0 1451 0 1450 283 -3 c248 -3 286 -5 309 -20z"/>
</g>
</svg>
