<?xml version="1.0" standalone="no"?>
<!DOCTYPE svg PUBLIC "-//W3C//DTD SVG 20010904//EN"
 "http://www.w3.org/TR/2001/REC-SVG-20010904/DTD/svg10.dtd">
<svg version="1.0" xmlns="http://www.w3.org/2000/svg"
 width="512.000000pt" height="512.000000pt" viewBox="0 0 512.000000 512.000000"
 preserveAspectRatio="xMidYMid meet">

<g transform="translate(0.000000,512.000000) scale(0.100000,-0.100000)"
fill="#000000" stroke="none">
<path d="M4381 5104 c-120 -32 -240 -128 -296 -235 l-29 -57 -90 -11 c-696
-90 -1386 -370 -1946 -790 -63 -47 -120 -90 -128 -94 -7 -5 -40 3 -80 19 -87
36 -223 40 -317 9 -127 -41 -246 -154 -296 -282 -19 -48 -23 -77 -23 -168 0
-98 3 -117 28 -177 l27 -66 -67 -89 c-389 -509 -680 -1185 -781 -1816 l-17
-108 -75 -36 c-296 -142 -363 -530 -132 -759 67 -67 170 -120 260 -134 232
-35 467 118 527 344 31 115 11 267 -49 368 -24 41 -101 119 -160 163 l-27 20
26 135 c105 565 324 1082 650 1535 51 72 100 138 108 148 13 16 20 17 76 7 35
-6 90 -8 124 -5 l62 7 118 -589 c65 -323 129 -622 143 -663 13 -41 43 -109 66
-150 55 -97 188 -232 282 -287 39 -22 275 -145 525 -273 250 -127 458 -235
462 -239 4 -3 -2 -36 -14 -71 -30 -94 -30 -260 1 -350 34 -99 78 -168 150
-240 198 -196 511 -223 741 -66 92 63 726 702 779 786 63 97 86 182 86 315 0
171 -50 290 -170 410 -150 150 -374 210 -567 152 l-47 -15 -263 515 c-286 560
-317 609 -446 712 -79 63 -187 120 -273 145 -32 9 -319 70 -638 134 l-582 118
-2 132 -2 132 105 79 c412 309 855 521 1345 646 148 38 445 95 493 95 10 0 28
-20 42 -47 84 -159 294 -263 474 -234 235 38 407 234 406 465 -1 132 -39 231
-127 326 -114 124 -300 178 -462 134z m178 -348 c40 -21 64 -64 64 -111 0
-114 -133 -165 -210 -80 -93 99 25 253 146 191z m-2845 -1159 c34 -23 59 -82
52 -123 -9 -43 -57 -91 -102 -100 -109 -20 -188 112 -117 196 14 18 36 36 47
41 28 12 91 4 120 -14z m1125 -726 c344 -69 402 -84 466 -115 133 -66 147 -87
446 -673 145 -285 265 -524 267 -533 1 -9 -87 -105 -213 -230 l-216 -215 -342
173 c-669 340 -727 371 -788 432 -96 95 -108 132 -199 585 -44 219 -80 402
-80 405 0 2 92 -87 205 -200 l204 -204 -6 -71 c-17 -210 137 -379 346 -377
131 1 238 66 302 184 32 59 34 69 34 158 0 89 -2 99 -34 158 -67 123 -171 184
-312 183 l-75 0 -210 210 c-115 115 -204 209 -198 209 6 0 187 -36 403 -79z
m1795 -1465 c103 -60 144 -198 92 -309 -9 -18 -173 -189 -364 -379 -310 -310
-352 -347 -392 -358 -109 -29 -218 13 -275 104 -26 43 -30 59 -30 120 0 48 6
83 18 107 9 19 174 190 365 380 254 253 356 349 382 357 57 18 153 8 204 -22z
m-4076 -526 c68 -41 78 -133 22 -189 -78 -77 -197 -32 -208 79 -4 48 -3 52 36
90 33 33 46 40 78 40 22 0 54 -9 72 -20z"/>
</g>
</svg>
