<?xml version="1.0" standalone="yes"?>
<svg xmlns="http://www.w3.org/2000/svg" width="512" height="512">
<path style="fill:#ffffff; stroke:none;" d="M0 0L0 112L1 112C3.31895 57.9906 57.9741 3.32593 112 1L78 0L0 0z"/>
<path style="fill:#010101; stroke:none;" d="M112 0.428253C58.3471 8.11087 14.6839 46.819 2.5 100C-2.9867 123.949 0 150.558 0 175L0 311C0 361.336 -7.64117 415.645 23.4282 459C44.4314 488.308 77.2819 507.327 113 511.714C133.419 514.221 155.422 512 176 512L300 512C333.596 512 370.876 516.499 404 510.919C451.188 502.969 492.632 469.557 506.562 423C514.768 395.571 512 366.304 512 338L512 198C512 147.54 519.273 93.9601 487.105 51C465.995 22.8081 433.913 4.57391 399 0.286285C378.903 -2.18182 357.253 0 337 0L215 0C181.642 0 144.999 -4.297 112 0.428253z"/>
<path style="fill:#ffffff; stroke:none;" d="M400 0L400 1C454.026 3.32593 508.681 57.9905 511 112L512 112L512 0L400 0M121 43.4252C85.8802 48.2057 56.3148 69.9598 46.4282 105C39.5883 129.242 43 157.05 43 182L43 324C43 360.65 36.7672 402.446 59.4282 434C81.9357 465.34 115.577 469 151 469L312 469C340.031 469 370.327 472.216 398 467.565C427.725 462.569 453.643 441.643 463.655 413C473.109 385.953 469 354.228 469 326L469 167C469 134.997 471.637 102.997 451.101 76C427.374 44.808 392.776 43 357 43L200 43C174.302 43 146.454 39.9604 121 43.4252z"/>
<path style="fill:#010101; stroke:none;" d="M388 85.5178C345.71 94.5402 361.057 157.902 403 148.711C443.035 139.937 428.086 76.9655 388 85.5178M240 128.428C219.685 131.337 200.071 138.153 183 149.746C121.856 191.272 109.638 281.125 156.464 338C173.668 358.896 197.155 372.986 223 380.29C238.148 384.571 256.383 385.808 272 383.572C291.816 380.734 311.419 374.283 328 362.795C397.175 314.868 403.196 212.324 339 157.3C324.941 145.25 307.687 137.069 290 132C274.489 127.555 256.025 126.134 240 128.428z"/>
<path style="fill:#ffffff; stroke:none;" d="M249 171.425C213.276 176.288 182.943 198.976 173.895 235C160.579 288.019 204.789 347.557 262 340.715C305.489 335.513 337.903 303.167 340.91 259C344.186 210.898 297.421 164.834 249 171.425M0 400L0 512L112 512L112 511C68.398 509.123 29.3677 474.526 11.2585 437C5.55279 425.177 5.20773 411.601 0 400M511 400C508.674 454.022 454.022 508.675 400 511L400 512L512 512L512 434L511 400z"/>
</svg>
