<?xml version="1.0" standalone="no"?>
<!DOCTYPE svg PUBLIC "-//W3C//DTD SVG 20010904//EN"
 "http://www.w3.org/TR/2001/REC-SVG-20010904/DTD/svg10.dtd">
<svg version="1.0" xmlns="http://www.w3.org/2000/svg"
 width="512.000000pt" height="512.000000pt" viewBox="0 0 512.000000 512.000000"
 preserveAspectRatio="xMidYMid meet">

<g transform="translate(0.000000,512.000000) scale(0.100000,-0.100000)"
fill="#000000" stroke="none">
<path d="M1949 5102 c-19 -10 -120 -105 -224 -211 l-190 -193 -240 -120 c-270
-135 -289 -147 -312 -191 -9 -18 -34 -151 -58 -307 l-41 -275 -91 -175 c-164
-316 -173 -334 -173 -369 0 -24 38 -109 132 -290 l132 -256 42 -277 c29 -193
47 -287 61 -310 16 -28 61 -55 281 -169 152 -78 277 -150 297 -169 l35 -34 0
-819 c0 -816 0 -819 21 -857 26 -45 83 -80 132 -80 27 0 138 51 427 195 l390
195 392 -196 c367 -183 396 -196 437 -191 51 6 88 31 116 78 20 33 20 55 23
859 l3 824 27 29 c15 17 136 84 283 157 250 126 298 157 313 207 3 10 23 139
46 287 l41 269 130 254 c128 249 131 256 126 306 -4 42 -31 101 -131 293
l-126 242 -40 268 c-22 148 -43 277 -46 287 -15 50 -63 81 -298 199 l-241 120
-215 213 c-180 179 -221 214 -252 220 -25 5 -124 -8 -312 -39 l-275 -46 -272
45 c-149 25 -281 45 -293 45 -12 0 -37 -8 -57 -18z m353 -337 c117 -19 236
-35 263 -35 28 0 153 17 278 37 l229 38 182 -185 182 -185 222 -110 c208 -103
222 -112 227 -140 3 -16 20 -130 39 -251 l33 -222 117 -225 117 -226 -117
-227 -117 -226 -38 -251 c-22 -138 -40 -251 -42 -253 -1 -1 -103 -52 -227
-113 l-225 -112 -176 -181 -176 -182 -252 42 -251 42 -250 -42 -251 -41 -187
185 -187 186 -222 111 c-123 61 -223 117 -223 124 0 6 -16 116 -35 242 l-34
230 -118 233 -118 233 118 232 118 232 35 235 c19 129 36 240 39 247 2 7 107
64 232 127 l228 115 175 175 c96 97 180 176 187 176 6 0 107 -16 225 -35z
m547 -3321 l284 -47 49 21 48 20 0 -519 0 -519 -311 155 c-243 121 -319 155
-350 155 -31 0 -106 -33 -349 -155 -170 -85 -312 -155 -315 -155 -3 0 -5 234
-5 521 0 286 3 519 8 517 4 -2 25 -12 47 -23 l40 -18 270 45 c149 25 277 46
285 47 8 1 143 -20 299 -45z"/>
<path d="M2386 4295 c-449 -85 -787 -435 -857 -885 -18 -114 -6 -304 26 -420
136 -497 619 -830 1119 -771 251 29 443 120 624 295 371 359 423 929 123 1353
-140 199 -356 347 -596 409 -127 33 -320 41 -439 19z m350 -311 c243 -50 458
-250 542 -502 23 -69 26 -93 26 -222 0 -129 -3 -153 -26 -222 -42 -125 -91
-204 -192 -303 -105 -105 -205 -161 -345 -196 -120 -30 -292 -24 -406 15 -267
91 -452 308 -501 587 -72 414 230 812 650 858 85 9 157 5 252 -15z"/>
</g>
</svg>
