<?xml version="1.0" standalone="no"?>
<!DOCTYPE svg PUBLIC "-//W3C//DTD SVG 20010904//EN"
 "http://www.w3.org/TR/2001/REC-SVG-20010904/DTD/svg10.dtd">
<svg version="1.0" xmlns="http://www.w3.org/2000/svg"
 width="512.000000pt" height="512.000000pt" viewBox="0 0 512.000000 512.000000"
 preserveAspectRatio="xMidYMid meet">

<g transform="translate(0.000000,512.000000) scale(0.100000,-0.100000)"
fill="#000000" stroke="none">
<path d="M2385 5114 c-306 -32 -539 -97 -790 -219 -581 -282 -1011 -812 -1170
-1444 -57 -228 -58 -250 -62 -1005 -5 -782 -5 -779 64 -919 46 -91 160 -208
250 -255 133 -70 286 -88 427 -52 113 29 190 73 276 160 87 86 131 163 160
276 18 71 20 112 20 504 0 392 -2 433 -20 504 -29 113 -73 190 -160 276 -148
149 -341 208 -540 166 -36 -8 -67 -12 -69 -10 -7 6 21 168 46 268 235 933
1178 1517 2123 1314 373 -80 730 -292 977 -578 230 -268 388 -620 429 -954 6
-54 5 -58 -12 -52 -143 45 -317 27 -457 -46 -81 -42 -203 -164 -245 -245 -68
-129 -72 -167 -72 -643 0 -476 4 -514 72 -643 42 -81 164 -203 245 -245 119
-63 260 -85 387 -61 32 6 60 8 64 5 3 -3 -12 -41 -33 -83 -52 -107 -161 -215
-265 -267 -124 -60 -170 -66 -560 -65 l-345 0 -34 72 c-47 100 -158 210 -261
261 -179 87 -379 85 -553 -6 -81 -42 -203 -164 -245 -245 -70 -133 -88 -286
-52 -427 29 -113 73 -190 160 -276 150 -151 340 -208 545 -165 169 35 335 163
406 311 l34 72 395 4 c361 4 402 6 475 26 395 103 681 411 750 807 13 74 15
221 15 935 0 522 -4 888 -11 956 -74 766 -536 1434 -1224 1770 -203 99 -414
165 -635 199 -101 15 -423 27 -505 19z m-1315 -2428 c21 -13 48 -42 61 -63
l24 -38 0 -425 0 -425 -24 -38 c-13 -21 -42 -50 -64 -65 -34 -23 -52 -27 -107
-27 -55 0 -73 4 -107 27 -22 15 -51 44 -64 65 l-24 38 -3 402 c-2 270 1 416 8
443 13 49 76 115 122 129 53 16 135 6 178 -23z m3200 0 c21 -13 48 -42 61 -63
l24 -38 0 -425 0 -425 -24 -38 c-13 -21 -42 -50 -64 -65 -34 -23 -52 -27 -107
-27 -55 0 -73 4 -107 27 -22 15 -51 44 -64 65 l-24 38 -3 402 c-2 270 1 416 8
443 13 49 76 115 122 129 53 16 135 6 178 -23z m-1600 -1920 c59 -39 85 -89
85 -166 0 -78 -26 -127 -88 -168 -56 -37 -153 -39 -210 -3 -76 47 -111 140
-88 229 14 51 75 117 123 131 53 16 135 6 178 -23z"/>
</g>
</svg>
