<?xml version="1.0" standalone="no"?>
<!DOCTYPE svg PUBLIC "-//W3C//DTD SVG 20010904//EN"
 "http://www.w3.org/TR/2001/REC-SVG-20010904/DTD/svg10.dtd">
<svg version="1.0" xmlns="http://www.w3.org/2000/svg"
 width="512.000000pt" height="512.000000pt" viewBox="0 0 512.000000 512.000000"
 preserveAspectRatio="xMidYMid meet">

<g transform="translate(0.000000,512.000000) scale(0.100000,-0.100000)"
fill="#000000" stroke="none">
<path d="M4510 5106 c-25 -7 -63 -22 -85 -34 -22 -11 -368 -288 -769 -616
l-730 -596 -1222 0 c-783 0 -1241 -4 -1275 -10 -115 -22 -230 -104 -280 -201
-50 -99 -49 -58 -49 -1400 0 -1225 1 -1259 20 -1321 25 -83 85 -165 153 -212
105 -72 83 -70 760 -74 l607 -3 0 -169 0 -170 -142 0 c-116 0 -150 -3 -178
-18 -107 -53 -107 -211 0 -264 32 -17 95 -18 868 -18 922 0 877 -3 925 64 31
43 31 129 0 172 -39 54 -74 64 -232 64 l-141 0 0 170 0 170 573 0 c371 0 594
4 632 11 160 29 290 156 324 317 8 38 11 433 11 1373 l0 1321 124 151 c68 84
219 269 336 412 116 143 222 280 234 305 114 224 -2 495 -243 571 -71 21 -154
23 -221 5z m176 -317 c28 -26 41 -81 26 -113 -8 -18 -870 -1084 -919 -1136
-11 -13 -36 9 -188 160 -96 96 -174 178 -173 181 3 7 1024 843 1108 907 38 29
50 33 83 29 21 -3 50 -15 63 -28z m-1204 -1630 c-127 -155 -141 -169 -202
-201 -69 -36 -191 -38 -262 -5 -115 52 -178 141 -186 261 -9 145 26 203 219
360 l143 117 199 -199 199 -199 -110 -134z m-872 396 c0 -3 -11 -28 -25 -55
-32 -63 -55 -159 -55 -232 l0 -58 -88 0 c-205 0 -397 -95 -518 -257 -88 -117
-124 -255 -124 -475 -1 -231 -28 -358 -100 -464 -47 -69 -53 -127 -20 -182 47
-77 150 -95 224 -38 97 74 192 96 461 106 232 9 292 19 392 67 211 99 353 333
353 580 l0 83 63 0 c115 0 238 44 344 125 39 29 122 122 253 283 107 133 198
241 203 241 4 1 7 -406 7 -904 l0 -905 -1790 0 -1790 0 0 1009 0 1008 21 27
c12 15 31 32 43 36 22 9 2146 14 2146 5z m-8 -677 c72 -33 142 -103 176 -176
23 -49 27 -70 27 -152 0 -82 -4 -103 -26 -151 -38 -80 -88 -131 -161 -164 -60
-27 -72 -29 -273 -36 -115 -4 -223 -10 -239 -14 -28 -8 -29 -7 -21 21 4 16 11
124 15 239 9 233 18 276 78 346 35 41 98 82 160 106 60 22 195 12 264 -19z
m1378 -1780 c0 -91 -21 -132 -77 -148 -27 -8 -525 -10 -1741 -8 l-1704 3 -29
33 c-27 30 -29 38 -29 112 l0 80 1790 0 1790 0 0 -72z m-1540 -628 l0 -170
-250 0 -250 0 0 170 0 170 250 0 250 0 0 -170z"/>
</g>
</svg>
