<?xml version="1.0" standalone="no"?>
<!DOCTYPE svg PUBLIC "-//W3C//DTD SVG 20010904//EN"
 "http://www.w3.org/TR/2001/REC-SVG-20010904/DTD/svg10.dtd">
<svg version="1.0" xmlns="http://www.w3.org/2000/svg"
 width="512.000000pt" height="512.000000pt" viewBox="0 0 512.000000 512.000000"
 preserveAspectRatio="xMidYMid meet">

<g transform="translate(0.000000,512.000000) scale(0.100000,-0.100000)"
fill="#000000" stroke="none">
<path d="M2423 4672 c-74 -27 -108 -52 -309 -227 -262 -230 -276 -235 -614
-235 -124 0 -245 -5 -269 -11 -118 -27 -228 -116 -284 -228 l-32 -65 -6 -271
c-8 -363 -6 -358 -223 -613 -79 -92 -159 -190 -179 -216 -101 -131 -101 -361
0 -492 20 -26 100 -124 179 -216 217 -255 215 -250 223 -613 l6 -271 32 -65
c56 -112 166 -201 284 -228 24 -6 145 -11 269 -11 337 0 345 -3 610 -232 220
-190 237 -202 317 -229 53 -17 82 -21 157 -17 136 6 180 30 415 232 280 241
291 246 613 246 122 0 240 5 270 11 144 31 259 135 307 277 19 55 21 85 21
290 0 342 4 352 246 633 116 135 176 214 198 259 29 61 31 72 31 180 0 110 -2
119 -32 180 -22 44 -88 130 -201 261 -170 196 -210 258 -231 350 -6 24 -11
143 -11 264 0 290 -16 352 -114 461 -51 58 -137 107 -214 123 -29 6 -151 11
-270 11 -119 0 -237 5 -261 11 -89 20 -150 60 -347 229 -248 213 -286 233
-428 238 -78 2 -113 -2 -153 -16z m1003 -1467 c59 -38 83 -139 50 -203 -18
-33 -1072 -1085 -1103 -1101 -31 -16 -109 -14 -141 3 -41 22 -580 567 -592
599 -49 132 84 259 213 203 18 -8 126 -109 242 -225 l210 -211 475 474 c353
353 483 476 505 481 17 4 35 8 40 9 18 5 75 -12 101 -29z"/>
</g>
</svg>
