<?xml version="1.0" standalone="no"?>
<!DOCTYPE svg PUBLIC "-//W3C//DTD SVG 20010904//EN"
 "http://www.w3.org/TR/2001/REC-SVG-20010904/DTD/svg10.dtd">
<svg version="1.0" xmlns="http://www.w3.org/2000/svg"
 width="512.000000pt" height="512.000000pt" viewBox="0 0 512.000000 512.000000"
 preserveAspectRatio="xMidYMid meet">

<g transform="translate(0.000000,512.000000) scale(0.100000,-0.100000)"
fill="#000000" stroke="none">
<path d="M515 4903 c-55 -7 -138 -34 -195 -63 -133 -67 -248 -202 -292 -343
l-23 -72 0 -1865 0 -1865 23 -72 c57 -183 209 -329 408 -390 56 -17 149 -18
2124 -18 1977 0 2068 1 2125 18 194 60 335 192 403 378 l27 74 3 1842 c3 2024
5 1920 -57 2048 -69 140 -194 249 -346 302 l-80 28 -2045 1 c-1125 1 -2058 -1
-2075 -3z m4120 -336 c50 -23 110 -80 138 -132 17 -32 22 -62 25 -157 l4 -118
-2242 0 -2242 0 4 118 c4 136 18 172 90 239 40 36 72 52 133 66 11 3 927 4
2035 3 1917 -1 2017 -2 2055 -19z m163 -2284 l-3 -1558 -22 -40 c-28 -54 -100
-119 -149 -136 -58 -21 -4070 -21 -4128 0 -49 17 -121 82 -149 136 l-22 40 -3
1558 -2 1557 2240 0 2240 0 -2 -1557z"/>
<path d="M899 3394 c-109 -33 -205 -131 -239 -244 -20 -64 -20 -89 -18 -1040
l3 -975 33 -67 c40 -82 119 -157 200 -190 l57 -23 665 0 665 0 57 23 c81 33
160 108 200 190 l33 67 3 975 c2 951 2 976 -18 1040 -35 116 -130 211 -243
245 -73 22 -1327 21 -1398 -1z m1325 -320 c14 -14 16 -74 16 -510 0 -272 -2
-494 -5 -494 -3 0 -23 9 -44 19 -59 31 -158 44 -225 32 -119 -22 -184 -68
-292 -206 -65 -83 -84 -95 -117 -71 -87 64 -130 87 -182 101 -75 19 -115 19
-190 0 -70 -19 -113 -44 -177 -104 l-48 -44 0 631 c0 560 2 632 16 646 14 14
84 16 624 16 540 0 610 -2 624 -16z m-177 -1262 c6 -4 52 -58 102 -121 l91
-113 0 -189 c0 -183 -1 -188 -22 -203 -20 -14 -95 -16 -618 -16 -523 0 -598 2
-618 16 -19 13 -22 24 -22 87 l0 73 148 147 c94 93 156 147 169 147 11 0 38
-14 59 -31 131 -106 316 -117 457 -27 26 17 75 65 109 107 107 133 117 141
145 123z"/>
<path d="M3080 3288 c-66 -34 -93 -79 -88 -149 5 -65 32 -109 82 -133 30 -14
103 -16 664 -16 l629 0 33 23 c48 32 72 69 77 119 7 58 -23 118 -74 149 l-38
24 -620 3 -620 2 -45 -22z"/>
<path d="M3080 2648 c-66 -34 -93 -79 -88 -149 5 -65 32 -109 82 -133 30 -14
103 -16 664 -16 l629 0 33 23 c48 32 72 69 77 119 7 58 -23 118 -74 149 l-38
24 -620 3 -620 2 -45 -22z"/>
<path d="M3080 2008 c-66 -34 -93 -79 -88 -149 5 -65 32 -109 82 -133 30 -14
103 -16 664 -16 l629 0 33 23 c48 32 72 69 77 119 7 58 -23 118 -74 149 l-38
24 -620 3 -620 2 -45 -22z"/>
<path d="M3080 1368 c-66 -34 -93 -79 -88 -149 5 -65 32 -109 82 -133 30 -14
103 -16 664 -16 l629 0 33 22 c48 33 72 70 77 120 7 58 -23 118 -74 149 l-38
24 -620 3 -620 2 -45 -22z"/>
</g>
</svg>
